HIERARCHY
ROOT Hips
{
 OFFSET 0.000000 0.000000 0.000000
 CHANNELS 6 Xposition Yposition Zposition Yrotation Xrotation Zrotation
 JOINT Chest
 {
  OFFSET 0.000000 9.588913 -0.003946
  CHANNELS 3 Yrotation Xrotation Zrotation
  JOINT Chest2
  {
   OFFSET 0.000000 9.541882 0.008053
   CHANNELS 3 Yrotation Xrotation Zrotation
   JOINT Chest3
   {
    OFFSET 0.000000 9.501360 0.000000
    CHANNELS 3 Yrotation Xrotation Zrotation
    JOINT Chest4
    {
     OFFSET 0.000000 9.491660 0.000000
     CHANNELS 3 Yrotation Xrotation Zrotation
     JOINT Neck
     {
      OFFSET 0.000000 14.331917 0.000000
      CHANNELS 3 Yrotation Xrotation Zrotation
      JOINT Head
      {
       OFFSET 0.000000 8.884799 0.017034
       CHANNELS 3 Yrotation Xrotation Zrotation
       End Site
       {
        OFFSET 0.000000 16.896195 0.008993
       }
      }
     }
     JOINT RightCollar
     {
      OFFSET -2.923010 9.499495 0.000000
      CHANNELS 3 Yrotation Xrotation Zrotation
      JOINT RightShoulder
      {
       OFFSET -13.795216 0.000000 0.000000
       CHANNELS 3 Yrotation Xrotation Zrotation
       JOINT RightElbow
       {
        OFFSET -30.272209 0.000000 0.000000
        CHANNELS 3 Yrotation Xrotation Zrotation
        JOINT RightWrist
        {
         OFFSET -24.478199 0.000000 0.000000
         CHANNELS 3 Yrotation Xrotation Zrotation
         End Site
         {
          OFFSET -18.090752 0.000000 0.000000
         }
        }
       }
      }
     }
     JOINT LeftCollar
     {
      OFFSET 2.923010 9.499495 0.000000
      CHANNELS 3 Yrotation Xrotation Zrotation
      JOINT LeftShoulder
      {
       OFFSET 13.795216 0.000000 0.000000
       CHANNELS 3 Yrotation Xrotation Zrotation
       JOINT LeftElbow
       {
        OFFSET 30.272209 0.000000 0.000000
        CHANNELS 3 Yrotation Xrotation Zrotation
        JOINT LeftWrist
        {
         OFFSET 24.478199 0.000000 0.000000
         CHANNELS 3 Yrotation Xrotation Zrotation
         End Site
         {
          OFFSET 18.090752 0.000000 0.000000
         }
        }
       }
      }
     }
    }
   }
  }
 }
 JOINT RightHip
 {
  OFFSET -7.826875 0.019532 0.001973
  CHANNELS 3 Yrotation Xrotation Zrotation
  JOINT RightKnee
  {
   OFFSET 0.000000 -40.546152 -0.001885
   CHANNELS 3 Yrotation Xrotation Zrotation
   JOINT RightAnkle
   {
    OFFSET 0.000000 -39.417092 -0.003189
    CHANNELS 3 Yrotation Xrotation Zrotation
    JOINT RightToe
    {
     OFFSET 0.000000 -7.579396 17.243563
     CHANNELS 3 Yrotation Xrotation Zrotation
     End Site
     {
      OFFSET 0.000000 -1.500329 6.694466
     }
    }
   }
  }
 }
 JOINT LeftHip
 {
  OFFSET 7.826875 0.019532 0.001973
  CHANNELS 3 Yrotation Xrotation Zrotation
  JOINT LeftKnee
  {
   OFFSET 0.000000 -40.546152 -0.001885
   CHANNELS 3 Yrotation Xrotation Zrotation
   JOINT LeftAnkle
   {
    OFFSET 0.000000 -39.417092 -0.003189
    CHANNELS 3 Yrotation Xrotation Zrotation
    JOINT LeftToe
    {
     OFFSET 0.000000 -7.579396 17.243563
     CHANNELS 3 Yrotation Xrotation Zrotation
     End Site
     {
      OFFSET 0.000000 -1.500329 6.694466
     }
    }
   }
  }
 }
}
MOTION
Frames: 5
Frame Time: 0.008333
-66.001364 82.744868 46.733566 -25.718252 -14.445052 -0.566444 1.109032 6.002919 3.343625 0.521159 4.393116 1.652544 0.671800 5.488890 2.073469 0.521163 4.393122 1.652546 -6.631764 20.817966 -1.277919 -6.898324 -3.361384 0.139876 -10.140553 4.412569 -3.063547 -11.372546 5.740286 85.980569 37.934525 -0.794055 5.440413 1.155108 -1.282964 -1.945873 -4.151085 2.558798 -1.855401 8.593982 -1.319637 -90.470270 -22.286156 2.871835 -15.183050 -6.624519 2.172036 3.093166 -9.151420 -15.734262 -5.979686 9.494214 34.609660 5.201196 -3.708563 -5.463403 5.517595 -0.179369 1.526115 -0.025892 11.533199 -9.749147 6.768284 5.894479 56.696267 16.159287 7.146631 -14.436540 -12.752850 -0.165946 -13.236148 -5.490618
-66.527341 82.953018 47.081257 -25.011083 -14.394101 -0.656597 0.618564 5.568923 3.189533 0.543543 4.367425 1.653263 0.699688 5.456672 2.074581 0.543552 4.367429 1.653265 -6.720349 21.009229 -1.168122 -7.026972 -3.131789 0.278159 -10.285538 4.559285 -3.089785 -11.941877 5.951979 86.109484 39.488406 -0.359068 5.640407 1.112612 -1.066825 -1.734904 -4.091376 2.695724 -1.783044 8.891240 -0.993260 -90.500103 -22.575960 2.621752 -15.321847 -7.037859 1.916719 3.523895 -9.886700 -15.519900 -5.927038 9.507689 34.988037 5.375277 -3.807505 -5.558564 5.190951 -0.015311 1.324366 0.025158 11.362384 -9.944606 6.786401 5.399696 54.217276 14.955891 6.967253 -14.638769 -13.480562 -0.176690 -11.494546 -3.770965
-67.038848 83.174361 47.449834 -24.201226 -14.306282 -0.677455 0.011088 5.102505 2.952427 0.558091 4.320686 1.642181 0.717534 5.398202 2.060789 0.558105 4.320688 1.642184 -6.822292 21.201207 -1.061541 -7.170184 -2.899274 0.416186 -10.427416 4.726421 -3.137969 -12.441533 6.206980 86.276380 41.092911 -0.034025 5.819331 1.183930 -0.868991 -1.516038 -4.038168 2.821179 -1.739399 9.205911 -0.656457 -90.466444 -22.734510 2.371087 -15.454867 -7.452469 1.632069 3.965317 -10.736609 -15.348702 -5.990716 9.511324 35.349785 5.552679 -3.872019 -5.612556 4.886005 0.151424 1.093634 0.064863 11.283786 -9.949436 6.679951 4.637951 51.525533 13.632735 6.721361 -14.779082 -14.101345 -0.245234 -9.590808 -2.035788
-67.495394 83.392160 47.790276 -23.124176 -13.812304 -0.588250 -0.902022 4.234372 2.554038 0.568914 4.251938 1.619651 0.730483 5.312258 2.032581 0.568930 4.251938 1.619655 -6.933599 21.399032 -0.962933 -7.322494 -2.658178 0.547858 -10.565998 4.910563 -3.216568 -12.858928 6.494793 86.468342 42.711476 0.170684 5.985251 1.356697 -0.747914 -1.338849 -3.983318 2.951244 -1.713888 9.551309 -0.331559 -90.385535 -22.762841 2.145958 -15.570753 -7.845134 1.349547 4.382412 -11.865747 -15.613224 -6.171326 9.516376 35.706693 5.732179 -3.931753 -5.728177 4.606578 0.330674 0.943988 0.101596 11.002059 -10.120322 6.293430 3.716254 48.693336 12.234163 6.502784 -14.912891 -14.610019 -0.333719 -7.551214 -0.367780
-67.897050 83.610229 48.117533 -21.816818 -13.021250 -0.345213 -2.100670 3.053743 1.970585 0.579688 4.165021 1.587527 0.743184 5.203622 1.992329 0.579703 4.165021 1.587532 -7.041276 21.609323 -0.874101 -7.469001 -2.401755 0.668193 -10.699292 5.101301 -3.321447 -13.205992 6.801547 86.672368 44.311977 0.275396 6.161014 1.591977 -0.726511 -1.249055 -3.914115 3.099477 -1.688024 9.920148 -0.025206 -90.280038 -22.679401 1.956768 -15.649500 -8.180295 1.101958 4.748621 -13.222823 -16.231168 -6.487261 9.543316 36.073727 5.906229 -4.033877 -5.878813 4.357756 0.550151 0.853048 0.149292 10.429999 -10.380973 5.613414 2.777063 45.850139 10.767901 6.542164 -14.940444 -14.550564 -0.416620 -5.562240 0.726271
